<?xml version="1.0" standalone="no"?>
<!DOCTYPE svg PUBLIC "-//W3C//DTD SVG 20010904//EN"
 "http://www.w3.org/TR/2001/REC-SVG-20010904/DTD/svg10.dtd">
<svg version="1.0" xmlns="http://www.w3.org/2000/svg"
 width="512.000000pt" height="512.000000pt" viewBox="0 0 512.000000 512.000000"
 preserveAspectRatio="xMidYMid meet">
<metadata>
Created by potrace 1.11, written by Peter Selinger 2001-2013
</metadata>
<g transform="translate(0.000000,512.000000) scale(0.100000,-0.100000)"
fill="#000000" stroke="none">
<path d="M2325 4870 l-230 -230 -327 0 -328 0 -1 -207 c-1 -115 0 -222 1 -240
l1 -32 -398 -1 c-219 0 -414 -3 -433 -6 -86 -13 -210 -103 -245 -177 -25 -53
-44 -115 -38 -121 4 -3 2 -6 -3 -6 -5 0 -8 -118 -7 -285 1 -218 -1 -284 -10
-278 -9 5 -9 3 -1 -8 17 -21 17 -962 1 -952 -9 5 -9 3 -1 -8 17 -21 17 -962 1
-952 -9 5 -9 3 -1 -8 8 -10 12 -121 12 -359 1 -190 4 -365 8 -390 3 -25 7 -55
8 -67 0 -11 4 -19 9 -16 4 2 7 -2 7 -9 0 -8 13 -29 30 -48 16 -19 29 -41 30
-47 0 -7 7 -13 15 -13 7 0 19 -8 24 -17 6 -10 11 -14 11 -9 0 4 9 -2 21 -15
11 -13 18 -18 14 -11 -5 10 -1 10 19 1 14 -7 23 -16 20 -20 -2 -4 6 -8 18 -7
46 2 59 -2 52 -15 -5 -8 -2 -8 9 2 15 12 17 11 17 -5 0 -14 3 -15 12 -6 15 15
31 16 22 0 -5 -7 -3 -8 6 -3 19 12 99 17 80 5 -9 -6 -10 -10 -3 -10 6 0 15 5
18 10 3 6 11 10 16 10 6 0 7 -5 3 -12 -5 -7 -3 -8 7 -2 8 4 41 9 73 10 38 1
54 -1 45 -7 -9 -6 -10 -9 -2 -9 6 0 15 4 18 10 3 5 11 10 16 10 6 0 7 -5 3
-12 -5 -7 -3 -8 7 -3 7 5 25 10 38 11 20 2 22 1 11 -6 -8 -5 -10 -10 -4 -10 6
0 14 3 18 8 10 10 126 11 126 1 0 -5 -8 -6 -18 -3 -14 5 -15 4 -2 -5 11 -8 18
-7 25 2 6 7 30 13 57 13 26 0 42 -4 35 -8 -7 -4 -9 -8 -4 -8 4 0 16 6 27 12
16 10 24 10 41 0 12 -8 19 -9 15 -4 -3 5 8 9 25 9 19 0 25 -3 17 -9 -9 -5 -10
-8 -1 -8 6 0 15 4 18 10 3 5 14 10 23 10 15 0 15 -2 2 -10 -8 -5 -10 -10 -4
-10 6 0 14 3 18 8 11 10 185 9 178 -2 -3 -5 1 -5 9 0 8 5 38 10 67 10 33 1 49
-2 40 -7 -9 -6 -9 -9 -1 -9 6 0 15 5 18 10 3 6 11 10 16 10 6 0 7 -5 3 -12 -5
-7 -3 -8 7 -2 8 4 41 9 73 10 38 1 54 -1 45 -7 -9 -6 -10 -9 -2 -9 6 0 15 4
18 10 3 5 11 10 16 10 6 0 7 -5 3 -12 -5 -7 -3 -8 7 -3 7 5 25 10 38 11 20 2
22 1 11 -6 -8 -5 -10 -10 -4 -10 6 0 14 3 18 7 10 11 126 12 126 2 0 -5 -8 -6
-17 -3 -15 5 -16 4 -3 -5 11 -8 18 -7 25 2 6 7 30 13 57 13 26 0 42 -4 35 -8
-7 -4 -9 -8 -4 -8 4 0 16 6 27 12 16 10 24 10 41 0 12 -8 19 -9 15 -4 -3 5 8
9 25 9 19 0 25 -3 17 -9 -9 -5 -10 -8 -1 -8 6 0 15 4 18 10 3 5 14 10 23 10
15 0 15 -2 2 -10 -8 -5 -10 -10 -4 -10 6 0 14 3 18 8 11 10 185 9 178 -2 -3
-5 1 -5 9 0 8 5 38 10 67 10 33 1 49 -2 40 -7 -9 -6 -9 -9 -1 -9 6 0 15 4 18
10 3 5 11 10 16 10 6 0 7 -5 3 -12 -5 -7 -3 -8 7 -2 8 4 41 9 73 10 38 1 54
-1 45 -7 -9 -6 -10 -9 -2 -9 6 0 15 5 18 10 3 6 11 10 16 10 6 0 7 -5 3 -12
-5 -7 -3 -8 7 -3 7 5 25 10 38 11 20 2 22 1 11 -6 -8 -5 -10 -10 -4 -10 6 0
14 3 18 8 10 10 126 11 126 1 0 -5 -8 -6 -17 -3 -15 5 -16 4 -3 -5 11 -8 18
-7 25 2 6 7 30 13 57 13 26 0 42 -4 35 -8 -7 -4 -9 -8 -4 -8 4 0 16 6 27 12
16 10 24 10 41 0 12 -8 19 -9 15 -4 -3 5 8 9 25 9 19 0 25 -3 17 -9 -9 -5 -10
-8 -1 -8 6 0 15 5 18 10 3 6 14 10 23 10 15 0 15 -2 2 -10 -8 -5 -10 -10 -4
-10 6 0 14 3 18 7 11 11 185 10 178 -1 -3 -5 1 -5 9 0 8 5 38 10 67 10 33 1
49 -2 40 -7 -9 -6 -9 -9 -1 -9 6 0 15 5 18 10 3 6 11 10 16 10 6 0 7 -5 3 -12
-5 -7 -3 -8 7 -2 8 4 41 9 73 10 38 1 54 -1 45 -7 -9 -6 -10 -9 -2 -9 6 0 15
5 18 10 3 6 11 10 16 10 6 0 7 -5 3 -12 -5 -7 -3 -8 7 -3 7 5 25 10 38 11 20
2 22 1 11 -6 -8 -5 -10 -10 -4 -10 6 0 14 3 18 8 10 10 126 11 126 1 0 -5 -8
-6 -17 -3 -15 5 -16 4 -3 -5 11 -8 18 -7 25 2 6 7 30 13 57 13 26 0 42 -4 35
-8 -7 -4 -9 -8 -4 -8 4 0 16 6 27 12 16 10 24 10 41 0 12 -8 19 -9 15 -4 -3 5
8 9 25 9 19 0 25 -3 17 -9 -9 -5 -10 -8 -1 -8 6 0 15 5 18 10 3 6 14 10 23 10
15 0 15 -2 2 -10 -8 -5 -10 -10 -4 -10 6 0 14 3 18 8 11 11 106 10 99 -2 -4
-5 -1 -6 8 -1 20 13 69 16 69 4 0 -5 -5 -7 -12 -3 -7 5 -8 3 -3 -6 6 -10 11
-9 22 5 7 11 13 15 13 11 0 -5 7 -3 15 4 12 10 18 10 32 -1 11 -10 14 -10 9
-2 -4 8 -2 14 6 15 7 0 18 2 24 2 6 1 19 7 28 15 9 7 16 10 16 6 0 -4 6 -2 13
4 8 6 17 9 20 6 4 -3 5 -2 2 1 -5 7 22 36 30 32 3 -2 14 12 25 30 11 18 25 30
30 27 6 -4 7 1 3 11 -4 12 -3 15 5 10 8 -5 10 -2 6 8 -4 10 -1 16 7 16 7 0 9
3 6 6 -3 4 -1 16 6 28 6 11 13 28 14 36 1 8 5 38 8 65 9 72 12 3225 3 3225 -5
0 -8 9 -8 20 0 12 -7 34 -15 50 -9 17 -13 30 -9 30 9 0 -56 81 -91 113 -16 15
-55 39 -85 55 -55 27 -57 27 -285 30 -126 1 -318 3 -425 5 l-195 2 -3 238 -2
237 -328 0 -327 0 -230 230 c-126 127 -232 230 -235 230 -3 0 -109 -103 -235
-230z"/>
<path d="M573 315 c0 -8 4 -12 9 -9 5 3 6 10 3 15 -9 13 -12 11 -12 -6z"/>
<path d="M1030 306 c0 -2 7 -7 16 -10 8 -3 12 -2 9 4 -6 10 -25 14 -25 6z"/>
<path d="M1275 300 c3 -5 8 -10 11 -10 2 0 4 5 4 10 0 6 -5 10 -11 10 -5 0 -7
-4 -4 -10z"/>
<path d="M1510 306 c0 -2 7 -7 16 -10 8 -3 12 -2 9 4 -6 10 -25 14 -25 6z"/>
<path d="M1990 306 c0 -2 7 -7 16 -10 8 -3 12 -2 9 4 -6 10 -25 14 -25 6z"/>
<path d="M2235 300 c3 -5 8 -10 11 -10 2 0 4 5 4 10 0 6 -5 10 -11 10 -5 0 -7
-4 -4 -10z"/>
<path d="M2470 306 c0 -2 7 -7 16 -10 8 -3 12 -2 9 4 -6 10 -25 14 -25 6z"/>
<path d="M2950 306 c0 -2 7 -7 16 -10 8 -3 12 -2 9 4 -6 10 -25 14 -25 6z"/>
<path d="M3195 300 c3 -5 8 -10 11 -10 2 0 4 5 4 10 0 6 -5 10 -11 10 -5 0 -7
-4 -4 -10z"/>
<path d="M3430 306 c0 -2 7 -7 16 -10 8 -3 12 -2 9 4 -6 10 -25 14 -25 6z"/>
<path d="M3910 306 c0 -2 7 -7 16 -10 8 -3 12 -2 9 4 -6 10 -25 14 -25 6z"/>
<path d="M4155 300 c3 -5 8 -10 11 -10 2 0 4 5 4 10 0 6 -5 10 -11 10 -5 0 -7
-4 -4 -10z"/>
<path d="M1407 279 c7 -7 15 -10 18 -7 3 3 -2 9 -12 12 -14 6 -15 5 -6 -5z"/>
<path d="M2367 279 c7 -7 15 -10 18 -7 3 3 -2 9 -12 12 -14 6 -15 5 -6 -5z"/>
<path d="M3327 279 c7 -7 15 -10 18 -7 3 3 -2 9 -12 12 -14 6 -15 5 -6 -5z"/>
<path d="M4287 279 c7 -7 15 -10 18 -7 3 3 -2 9 -12 12 -14 6 -15 5 -6 -5z"/>
</g>
</svg>
